<mxfile host="app.diagrams.net" agent="Mozilla/5.0 (Windows NT 10.0; Win64; x64) AppleWebKit/537.36 (KHTML, like Gecko) Chrome/136.0.0.0 Safari/537.36" version="27.0.2">
  <diagram name="Page-1" id="HLB41fw0S_f7Uq15PXxY">
    <mxGraphModel dx="1245" dy="1551" grid="1" gridSize="10" guides="1" tooltips="1" connect="1" arrows="1" fold="1" page="1" pageScale="1" pageWidth="850" pageHeight="1100" background="#ffffff" math="0" shadow="0">
      <root>
        <mxCell id="0" />
        <mxCell id="1" parent="0" />
        <mxCell id="-RsMOoIg_f74_92wgUtI-1" value="Fulname&amp;nbsp;&amp;nbsp;&lt;div&gt;&amp;nbsp;&lt;div&gt;Dob&amp;nbsp; &amp;nbsp; &amp;nbsp; &amp;nbsp; &amp;nbsp;&amp;nbsp;&lt;/div&gt;&lt;div&gt;&amp;nbsp; &amp;nbsp; &amp;nbsp; &amp;nbsp;&amp;nbsp;&lt;/div&gt;&lt;div&gt;contacatno&amp;nbsp;&amp;nbsp;&lt;/div&gt;&lt;div&gt;&amp;nbsp;&amp;nbsp;&lt;/div&gt;&lt;div&gt;Email&amp;nbsp; &amp;nbsp; &amp;nbsp; &amp;nbsp; &amp;nbsp;&amp;nbsp;&lt;/div&gt;&lt;div&gt;&amp;nbsp; &amp;nbsp; &amp;nbsp; &amp;nbsp; &amp;nbsp;&amp;nbsp;&lt;/div&gt;&lt;div&gt;Full address&lt;/div&gt;&lt;div&gt;&amp;nbsp;&lt;/div&gt;&lt;div&gt;&amp;nbsp; Account status&lt;/div&gt;&lt;div&gt;&lt;br&gt;&lt;/div&gt;&lt;/div&gt;" style="rounded=0;whiteSpace=wrap;html=1;" parent="1" vertex="1">
          <mxGeometry x="520" y="140" width="120" height="190" as="geometry" />
        </mxCell>
        <mxCell id="-RsMOoIg_f74_92wgUtI-2" value="faculty ID" style="rounded=0;whiteSpace=wrap;html=1;" parent="1" vertex="1">
          <mxGeometry x="520" y="110" width="120" height="30" as="geometry" />
        </mxCell>
        <mxCell id="-RsMOoIg_f74_92wgUtI-4" value="faculty" style="rounded=0;whiteSpace=wrap;html=1;" parent="1" vertex="1">
          <mxGeometry x="520" y="80" width="120" height="30" as="geometry" />
        </mxCell>
        <mxCell id="-RsMOoIg_f74_92wgUtI-5" value="&lt;div&gt;&lt;br&gt;&lt;/div&gt;&lt;div&gt;Book name&lt;/div&gt;Author name&lt;div&gt;&lt;br&gt;&lt;div&gt;&amp;nbsp; &amp;nbsp;publisher name&lt;/div&gt;&lt;div&gt;&lt;br&gt;&lt;/div&gt;&lt;div&gt;publisherDate&lt;/div&gt;&lt;div&gt;&lt;br&gt;&lt;/div&gt;&lt;div&gt;Edition&amp;nbsp; &amp;nbsp; &amp;nbsp; &amp;nbsp; &amp;nbsp; &amp;nbsp;&lt;/div&gt;&lt;div&gt;&lt;br&gt;&lt;/div&gt;&lt;div&gt;Book cost&amp;nbsp; &amp;nbsp; &amp;nbsp; &amp;nbsp;&lt;/div&gt;&lt;div&gt;&lt;br&gt;&lt;/div&gt;&lt;div&gt;No of page&amp;nbsp; &amp;nbsp; &amp;nbsp;&amp;nbsp;&lt;/div&gt;&lt;div&gt;&lt;br&gt;&lt;/div&gt;&lt;div&gt;&amp;nbsp; &amp;nbsp;Book describtion&lt;/div&gt;&lt;div&gt;&lt;br&gt;&lt;/div&gt;&lt;div&gt;No of copy&amp;nbsp; &amp;nbsp; &amp;nbsp;&amp;nbsp;&lt;/div&gt;&lt;div&gt;&lt;br&gt;&lt;/div&gt;&lt;div&gt;&lt;br&gt;&lt;/div&gt;&lt;/div&gt;" style="rounded=0;whiteSpace=wrap;html=1;" parent="1" vertex="1">
          <mxGeometry x="520" y="450" width="120" height="250" as="geometry" />
        </mxCell>
        <mxCell id="-RsMOoIg_f74_92wgUtI-6" value="pk&amp;nbsp; &amp;nbsp; &amp;nbsp; Book ID&amp;nbsp; &amp;nbsp; &amp;nbsp; &amp;nbsp; &amp;nbsp; &amp;nbsp; &amp;nbsp; &amp;nbsp;" style="rounded=0;whiteSpace=wrap;html=1;" parent="1" vertex="1">
          <mxGeometry x="520" y="420" width="120" height="30" as="geometry" />
        </mxCell>
        <mxCell id="-RsMOoIg_f74_92wgUtI-7" value="Book Details" style="rounded=0;whiteSpace=wrap;html=1;" parent="1" vertex="1">
          <mxGeometry x="520" y="390" width="120" height="30" as="geometry" />
        </mxCell>
        <mxCell id="-RsMOoIg_f74_92wgUtI-8" value="Faculty ID&lt;div&gt;&lt;br&gt;&lt;div&gt;Book ID&amp;nbsp;&lt;/div&gt;&lt;div&gt;&amp;nbsp;&amp;nbsp;&amp;nbsp;&lt;/div&gt;&lt;div&gt;Issue Date&lt;/div&gt;&lt;/div&gt;" style="rounded=0;whiteSpace=wrap;html=1;" parent="1" vertex="1">
          <mxGeometry x="720" y="210" width="120" height="110" as="geometry" />
        </mxCell>
        <mxCell id="-RsMOoIg_f74_92wgUtI-9" value="PK&amp;nbsp; &amp;nbsp; &amp;nbsp; &amp;nbsp; &amp;nbsp; &amp;nbsp; &amp;nbsp; &amp;nbsp;Issue ID" style="rounded=0;whiteSpace=wrap;html=1;" parent="1" vertex="1">
          <mxGeometry x="720" y="180" width="120" height="30" as="geometry" />
        </mxCell>
        <mxCell id="-RsMOoIg_f74_92wgUtI-10" value="Faulty issue" style="rounded=0;whiteSpace=wrap;html=1;" parent="1" vertex="1">
          <mxGeometry x="720" y="150" width="120" height="30" as="geometry" />
        </mxCell>
        <mxCell id="-RsMOoIg_f74_92wgUtI-11" value="Faculty ID&lt;div&gt;&lt;br&gt;&lt;div&gt;Book ID&amp;nbsp; &amp;nbsp;&amp;nbsp;&lt;/div&gt;&lt;div&gt;&lt;br&gt;&lt;/div&gt;&lt;div&gt;Issue Date&lt;/div&gt;&lt;div&gt;&lt;br&gt;&lt;/div&gt;&lt;div&gt;return date&lt;/div&gt;&lt;/div&gt;" style="rounded=0;whiteSpace=wrap;html=1;" parent="1" vertex="1">
          <mxGeometry x="720" y="420" width="120" height="120" as="geometry" />
        </mxCell>
        <mxCell id="-RsMOoIg_f74_92wgUtI-12" value="pk&amp;nbsp; &amp;nbsp; &amp;nbsp; Issue ID&amp;nbsp; &amp;nbsp; &amp;nbsp; &amp;nbsp;" style="rounded=0;whiteSpace=wrap;html=1;" parent="1" vertex="1">
          <mxGeometry x="720" y="390" width="120" height="30" as="geometry" />
        </mxCell>
        <mxCell id="-RsMOoIg_f74_92wgUtI-13" value="Faculty return" style="rounded=0;whiteSpace=wrap;html=1;" parent="1" vertex="1">
          <mxGeometry x="720" y="360" width="120" height="30" as="geometry" />
        </mxCell>
        <mxCell id="-RsMOoIg_f74_92wgUtI-14" value="" style="edgeStyle=entityRelationEdgeStyle;fontSize=12;html=1;endArrow=ERmany;rounded=0;exitX=0.975;exitY=0.847;exitDx=0;exitDy=0;exitPerimeter=0;entryX=-0.003;entryY=0.421;entryDx=0;entryDy=0;entryPerimeter=0;" parent="1" source="-RsMOoIg_f74_92wgUtI-1" target="-RsMOoIg_f74_92wgUtI-11" edge="1">
          <mxGeometry width="100" height="100" relative="1" as="geometry">
            <mxPoint x="630" y="310" as="sourcePoint" />
            <mxPoint x="720" y="470" as="targetPoint" />
            <Array as="points">
              <mxPoint x="761.36" y="513.23" />
              <mxPoint x="811" y="395.49" />
              <mxPoint x="531" y="375.49" />
              <mxPoint x="641" y="355.49" />
              <mxPoint x="511" y="375.49" />
              <mxPoint x="811" y="405.49" />
              <mxPoint x="981" y="455.49" />
              <mxPoint x="771" y="395.49" />
              <mxPoint x="731.36" y="453.23" />
              <mxPoint x="741.36" y="443.23" />
              <mxPoint x="751.36" y="485.23" />
              <mxPoint x="751.36" y="513.23" />
              <mxPoint x="751.36" y="513.23" />
            </Array>
          </mxGeometry>
        </mxCell>
        <mxCell id="-RsMOoIg_f74_92wgUtI-15" value="" style="edgeStyle=entityRelationEdgeStyle;fontSize=12;html=1;endArrow=ERmandOne;startArrow=ERmandOne;rounded=0;exitX=0.997;exitY=0.826;exitDx=0;exitDy=0;exitPerimeter=0;entryX=-0.003;entryY=0.645;entryDx=0;entryDy=0;entryPerimeter=0;" parent="1" source="-RsMOoIg_f74_92wgUtI-5" target="-RsMOoIg_f74_92wgUtI-11" edge="1">
          <mxGeometry width="100" height="100" relative="1" as="geometry">
            <mxPoint x="620" y="600" as="sourcePoint" />
            <mxPoint x="720" y="500" as="targetPoint" />
            <Array as="points">
              <mxPoint x="690" y="600" />
            </Array>
          </mxGeometry>
        </mxCell>
        <mxCell id="-RsMOoIg_f74_92wgUtI-18" value="" style="edgeStyle=entityRelationEdgeStyle;fontSize=12;html=1;endArrow=ERmandOne;startArrow=ERmandOne;rounded=0;exitX=1;exitY=0.25;exitDx=0;exitDy=0;entryX=0;entryY=0.75;entryDx=0;entryDy=0;" parent="1" source="-RsMOoIg_f74_92wgUtI-5" target="-RsMOoIg_f74_92wgUtI-8" edge="1">
          <mxGeometry width="100" height="100" relative="1" as="geometry">
            <mxPoint x="640" y="420" as="sourcePoint" />
            <mxPoint x="720" y="304" as="targetPoint" />
            <Array as="points">
              <mxPoint x="690" y="413" />
              <mxPoint x="680" y="323" />
            </Array>
          </mxGeometry>
        </mxCell>
        <mxCell id="-RsMOoIg_f74_92wgUtI-20" value="pk&amp;nbsp; &amp;nbsp; &amp;nbsp; &amp;nbsp; &amp;nbsp; transaction ID&amp;nbsp; &amp;nbsp;" style="rounded=0;whiteSpace=wrap;html=1;" parent="1" vertex="1">
          <mxGeometry x="280" y="199" width="170" height="30" as="geometry" />
        </mxCell>
        <mxCell id="-RsMOoIg_f74_92wgUtI-21" value="Transaction&amp;nbsp;" style="rounded=0;whiteSpace=wrap;html=1;" parent="1" vertex="1">
          <mxGeometry x="280" y="170" width="170" height="30" as="geometry" />
        </mxCell>
        <mxCell id="-RsMOoIg_f74_92wgUtI-22" value="Fullname&amp;nbsp; &amp;nbsp; &amp;nbsp; &amp;nbsp;&lt;div&gt;&lt;br&gt;&lt;div&gt;Dob&amp;nbsp; &amp;nbsp; &amp;nbsp; &amp;nbsp; &amp;nbsp; &amp;nbsp; &amp;nbsp;&amp;nbsp;&lt;/div&gt;&lt;div&gt;&lt;br&gt;&lt;/div&gt;&lt;div&gt;ContactNO&amp;nbsp; &amp;nbsp;&lt;/div&gt;&lt;div&gt;&lt;br&gt;&lt;/div&gt;&lt;div&gt;Email&amp;nbsp; &amp;nbsp; &amp;nbsp; &amp;nbsp; &amp;nbsp; &amp;nbsp;&amp;nbsp;&lt;/div&gt;&lt;div&gt;&lt;br&gt;&lt;/div&gt;&lt;div&gt;City&amp;nbsp; &amp;nbsp; &amp;nbsp; &amp;nbsp; &amp;nbsp; &amp;nbsp; &amp;nbsp;&amp;nbsp;&lt;/div&gt;&lt;div&gt;&amp;nbsp;&lt;/div&gt;&lt;div&gt;Full address&lt;/div&gt;&lt;div&gt;&lt;br&gt;&lt;/div&gt;&lt;div&gt;&amp;nbsp; Account Status&lt;/div&gt;&lt;div&gt;&lt;br&gt;&lt;/div&gt;&lt;div&gt;image&amp;nbsp; &amp;nbsp; &amp;nbsp; &amp;nbsp; &amp;nbsp; &amp;nbsp; &amp;nbsp;&lt;/div&gt;&lt;/div&gt;" style="rounded=0;whiteSpace=wrap;html=1;" parent="1" vertex="1">
          <mxGeometry x="270" y="525" width="170" height="240" as="geometry" />
        </mxCell>
        <mxCell id="-RsMOoIg_f74_92wgUtI-24" value="Student&amp;nbsp;" style="rounded=0;whiteSpace=wrap;html=1;" parent="1" vertex="1">
          <mxGeometry x="270" y="465" width="170" height="30" as="geometry" />
        </mxCell>
        <mxCell id="-RsMOoIg_f74_92wgUtI-25" value="" style="edgeStyle=entityRelationEdgeStyle;fontSize=12;html=1;endArrow=ERmany;rounded=0;exitX=0.992;exitY=0.096;exitDx=0;exitDy=0;exitPerimeter=0;entryX=0;entryY=0.455;entryDx=0;entryDy=0;entryPerimeter=0;" parent="1" source="-RsMOoIg_f74_92wgUtI-1" target="-RsMOoIg_f74_92wgUtI-8" edge="1">
          <mxGeometry width="100" height="100" relative="1" as="geometry">
            <mxPoint x="637" y="112.5" as="sourcePoint" />
            <mxPoint x="720" y="277.5" as="targetPoint" />
            <Array as="points">
              <mxPoint x="761.36" y="324.73" />
              <mxPoint x="811" y="206.99" />
              <mxPoint x="531" y="186.99" />
              <mxPoint x="641" y="166.99" />
              <mxPoint x="511" y="186.99" />
              <mxPoint x="811" y="216.99" />
              <mxPoint x="981" y="266.99" />
              <mxPoint x="771" y="206.99" />
              <mxPoint x="731.36" y="264.73" />
              <mxPoint x="741.36" y="254.73000000000002" />
              <mxPoint x="751.36" y="296.73" />
              <mxPoint x="751.36" y="324.73" />
              <mxPoint x="751.36" y="324.73" />
            </Array>
          </mxGeometry>
        </mxCell>
        <mxCell id="-RsMOoIg_f74_92wgUtI-26" value="" style="edgeStyle=entityRelationEdgeStyle;fontSize=12;html=1;endArrow=ERzeroToMany;startArrow=ERzeroToOne;rounded=0;entryX=0.019;entryY=0.36;entryDx=0;entryDy=0;entryPerimeter=0;exitX=1.028;exitY=0.681;exitDx=0;exitDy=0;exitPerimeter=0;" parent="1" source="-RsMOoIg_f74_92wgUtI-19" target="-RsMOoIg_f74_92wgUtI-1" edge="1">
          <mxGeometry width="100" height="100" relative="1" as="geometry">
            <mxPoint x="420" y="360" as="sourcePoint" />
            <mxPoint x="520" y="260" as="targetPoint" />
          </mxGeometry>
        </mxCell>
        <mxCell id="-RsMOoIg_f74_92wgUtI-27" value="" style="edgeStyle=entityRelationEdgeStyle;fontSize=12;html=1;endArrow=ERzeroToMany;startArrow=ERmandOne;rounded=0;entryX=1;entryY=0.25;entryDx=0;entryDy=0;exitX=1;exitY=0.25;exitDx=0;exitDy=0;" parent="1" source="-RsMOoIg_f74_92wgUtI-19" target="-RsMOoIg_f74_92wgUtI-22" edge="1">
          <mxGeometry width="100" height="100" relative="1" as="geometry">
            <mxPoint x="448" y="360" as="sourcePoint" />
            <mxPoint x="488" y="480" as="targetPoint" />
            <Array as="points">
              <mxPoint x="488" y="420" />
            </Array>
          </mxGeometry>
        </mxCell>
        <mxCell id="-RsMOoIg_f74_92wgUtI-28" value="" style="edgeStyle=entityRelationEdgeStyle;fontSize=12;html=1;endArrow=ERzeroToMany;startArrow=ERzeroToOne;rounded=0;entryX=0.008;entryY=0.195;entryDx=0;entryDy=0;entryPerimeter=0;exitX=1;exitY=0.75;exitDx=0;exitDy=0;" parent="1" source="-RsMOoIg_f74_92wgUtI-22" target="-RsMOoIg_f74_92wgUtI-5" edge="1">
          <mxGeometry width="100" height="100" relative="1" as="geometry">
            <mxPoint x="425" y="574" as="sourcePoint" />
            <mxPoint x="519" y="470" as="targetPoint" />
          </mxGeometry>
        </mxCell>
        <mxCell id="-RsMOoIg_f74_92wgUtI-29" value="" style="rounded=0;whiteSpace=wrap;html=1;" parent="1" vertex="1">
          <mxGeometry x="80" y="99" width="140" height="131" as="geometry" />
        </mxCell>
        <mxCell id="-RsMOoIg_f74_92wgUtI-30" value="" style="rounded=0;whiteSpace=wrap;html=1;" parent="1" vertex="1">
          <mxGeometry x="80" y="69" width="140" height="30" as="geometry" />
        </mxCell>
        <mxCell id="-RsMOoIg_f74_92wgUtI-31" value="" style="rounded=0;whiteSpace=wrap;html=1;" parent="1" vertex="1">
          <mxGeometry x="80" y="39" width="140" height="30" as="geometry" />
        </mxCell>
        <mxCell id="-RsMOoIg_f74_92wgUtI-32" value="" style="edgeStyle=entityRelationEdgeStyle;fontSize=12;html=1;endArrow=ERzeroToMany;startArrow=ERmandOne;rounded=0;exitX=1;exitY=0.5;exitDx=0;exitDy=0;entryX=-0.006;entryY=0.158;entryDx=0;entryDy=0;entryPerimeter=0;" parent="1" source="-RsMOoIg_f74_92wgUtI-30" target="-RsMOoIg_f74_92wgUtI-19" edge="1">
          <mxGeometry width="100" height="100" relative="1" as="geometry">
            <mxPoint x="190" y="215" as="sourcePoint" />
            <mxPoint x="290" y="115" as="targetPoint" />
          </mxGeometry>
        </mxCell>
        <mxCell id="-RsMOoIg_f74_92wgUtI-34" value="" style="rounded=0;whiteSpace=wrap;html=1;" parent="1" vertex="1">
          <mxGeometry x="80" y="400" width="140" height="140" as="geometry" />
        </mxCell>
        <mxCell id="-RsMOoIg_f74_92wgUtI-35" value="" style="rounded=0;whiteSpace=wrap;html=1;" parent="1" vertex="1">
          <mxGeometry x="80" y="370" width="140" height="30" as="geometry" />
        </mxCell>
        <mxCell id="-RsMOoIg_f74_92wgUtI-36" value="" style="rounded=0;whiteSpace=wrap;html=1;" parent="1" vertex="1">
          <mxGeometry x="80" y="340" width="140" height="30" as="geometry" />
        </mxCell>
        <mxCell id="-RsMOoIg_f74_92wgUtI-37" value="" style="rounded=0;whiteSpace=wrap;html=1;" parent="1" vertex="1">
          <mxGeometry x="80" y="700" width="140" height="170" as="geometry" />
        </mxCell>
        <mxCell id="-RsMOoIg_f74_92wgUtI-38" value="" style="rounded=0;whiteSpace=wrap;html=1;" parent="1" vertex="1">
          <mxGeometry x="80" y="670" width="140" height="30" as="geometry" />
        </mxCell>
        <mxCell id="-RsMOoIg_f74_92wgUtI-39" value="" style="rounded=0;whiteSpace=wrap;html=1;" parent="1" vertex="1">
          <mxGeometry x="80" y="640" width="140" height="30" as="geometry" />
        </mxCell>
        <mxCell id="E7_xd_vTUM8QLvZxNzg2-2" value="&lt;b&gt;&lt;font style=&quot;font-size: 18px;&quot;&gt;ER DIAGRAM FOR library management system&amp;nbsp;&lt;/font&gt;&lt;/b&gt;" style="rounded=0;whiteSpace=wrap;html=1;" vertex="1" parent="1">
          <mxGeometry x="130" y="-210" width="570" height="40" as="geometry" />
        </mxCell>
        <mxCell id="E7_xd_vTUM8QLvZxNzg2-4" value="" style="endArrow=none;html=1;rounded=0;strokeColor=#182E3E;fontColor=#1A1A1A;exitX=0.25;exitY=0.263;exitDx=0;exitDy=0;exitPerimeter=0;" edge="1" parent="1" source="-RsMOoIg_f74_92wgUtI-1">
          <mxGeometry width="50" height="50" relative="1" as="geometry">
            <mxPoint x="564" y="140" as="sourcePoint" />
            <mxPoint x="550" y="110" as="targetPoint" />
            <Array as="points">
              <mxPoint x="550" y="110" />
            </Array>
          </mxGeometry>
        </mxCell>
        <mxCell id="E7_xd_vTUM8QLvZxNzg2-5" value="" style="endArrow=none;html=1;rounded=0;strokeColor=#182E3E;fontColor=#1A1A1A;exitX=0.25;exitY=0.263;exitDx=0;exitDy=0;exitPerimeter=0;" edge="1" parent="1">
          <mxGeometry width="50" height="50" relative="1" as="geometry">
            <mxPoint x="544" y="500" as="sourcePoint" />
            <mxPoint x="544" y="420" as="targetPoint" />
            <Array as="points">
              <mxPoint x="544" y="420" />
            </Array>
          </mxGeometry>
        </mxCell>
        <mxCell id="E7_xd_vTUM8QLvZxNzg2-6" value="" style="endArrow=none;html=1;rounded=0;strokeColor=#182E3E;fontColor=#1A1A1A;exitX=0.25;exitY=0.263;exitDx=0;exitDy=0;exitPerimeter=0;" edge="1" parent="1">
          <mxGeometry width="50" height="50" relative="1" as="geometry">
            <mxPoint x="749" y="255" as="sourcePoint" />
            <mxPoint x="749" y="175" as="targetPoint" />
            <Array as="points">
              <mxPoint x="749" y="175" />
            </Array>
          </mxGeometry>
        </mxCell>
        <mxCell id="E7_xd_vTUM8QLvZxNzg2-7" value="" style="endArrow=none;html=1;rounded=0;strokeColor=#182E3E;fontColor=#1A1A1A;exitX=0.25;exitY=0.263;exitDx=0;exitDy=0;exitPerimeter=0;" edge="1" parent="1">
          <mxGeometry width="50" height="50" relative="1" as="geometry">
            <mxPoint x="750" y="470" as="sourcePoint" />
            <mxPoint x="750" y="390" as="targetPoint" />
            <Array as="points">
              <mxPoint x="750" y="390" />
            </Array>
          </mxGeometry>
        </mxCell>
        <mxCell id="E7_xd_vTUM8QLvZxNzg2-9" value="" style="endArrow=none;html=1;rounded=0;strokeColor=#182E3E;fontColor=#1A1A1A;" edge="1" parent="1" source="-RsMOoIg_f74_92wgUtI-19">
          <mxGeometry width="50" height="50" relative="1" as="geometry">
            <mxPoint x="320" y="400" as="sourcePoint" />
            <mxPoint x="370" y="350" as="targetPoint" />
          </mxGeometry>
        </mxCell>
        <mxCell id="E7_xd_vTUM8QLvZxNzg2-10" value="" style="endArrow=none;html=1;rounded=0;strokeColor=#182E3E;fontColor=#1A1A1A;" edge="1" parent="1" target="-RsMOoIg_f74_92wgUtI-19">
          <mxGeometry width="50" height="50" relative="1" as="geometry">
            <mxPoint x="320" y="400" as="sourcePoint" />
            <mxPoint x="370" y="350" as="targetPoint" />
          </mxGeometry>
        </mxCell>
        <mxCell id="-RsMOoIg_f74_92wgUtI-19" value="Fk1&amp;nbsp; Fk_studen_trnsaction&amp;nbsp; &amp;nbsp;&amp;nbsp;&lt;div&gt;&lt;br&gt;&lt;div&gt;FK2&amp;nbsp; &amp;nbsp; Fk_Book_transaction&amp;nbsp; &amp;nbsp; &amp;nbsp;&lt;/div&gt;&lt;div&gt;&lt;br&gt;&lt;/div&gt;&lt;div&gt;Book_ID&amp;nbsp; &amp;nbsp; &amp;nbsp;&lt;/div&gt;&lt;div&gt;&lt;br&gt;&lt;/div&gt;&lt;div&gt;Issue_Date&amp;nbsp;&amp;nbsp;&lt;/div&gt;&lt;div&gt;&amp;nbsp; &amp;nbsp;&amp;nbsp;&lt;/div&gt;&lt;div&gt;Return_Date&amp;nbsp;&amp;nbsp;&lt;/div&gt;&lt;/div&gt;" style="rounded=0;whiteSpace=wrap;html=1;" parent="1" vertex="1">
          <mxGeometry x="280" y="228" width="170" height="192" as="geometry" />
        </mxCell>
        <mxCell id="E7_xd_vTUM8QLvZxNzg2-11" value="" style="endArrow=none;html=1;rounded=0;strokeColor=#182E3E;fontColor=#1A1A1A;entryX=0.184;entryY=0.089;entryDx=0;entryDy=0;entryPerimeter=0;exitX=0.172;exitY=0.531;exitDx=0;exitDy=0;exitPerimeter=0;" edge="1" parent="1" source="-RsMOoIg_f74_92wgUtI-19" target="-RsMOoIg_f74_92wgUtI-20">
          <mxGeometry width="50" height="50" relative="1" as="geometry">
            <mxPoint x="320" y="400" as="sourcePoint" />
            <mxPoint x="370" y="350" as="targetPoint" />
          </mxGeometry>
        </mxCell>
        <mxCell id="E7_xd_vTUM8QLvZxNzg2-12" value="" style="endArrow=none;html=1;rounded=0;strokeColor=#182E3E;fontColor=#1A1A1A;exitX=0.25;exitY=0;exitDx=0;exitDy=0;entryX=0.235;entryY=0.438;entryDx=0;entryDy=0;entryPerimeter=0;" edge="1" parent="1" source="-RsMOoIg_f74_92wgUtI-23" target="-RsMOoIg_f74_92wgUtI-22">
          <mxGeometry width="50" height="50" relative="1" as="geometry">
            <mxPoint x="310" y="490" as="sourcePoint" />
            <mxPoint x="310" y="590" as="targetPoint" />
            <Array as="points" />
          </mxGeometry>
        </mxCell>
        <mxCell id="E7_xd_vTUM8QLvZxNzg2-15" style="edgeStyle=orthogonalEdgeStyle;rounded=0;orthogonalLoop=1;jettySize=auto;html=1;exitX=0.25;exitY=1;exitDx=0;exitDy=0;entryX=0.25;entryY=1;entryDx=0;entryDy=0;strokeColor=#182E3E;fontColor=#1A1A1A;" edge="1" parent="1" source="-RsMOoIg_f74_92wgUtI-23" target="-RsMOoIg_f74_92wgUtI-24">
          <mxGeometry relative="1" as="geometry" />
        </mxCell>
        <mxCell id="-RsMOoIg_f74_92wgUtI-23" value="Pk&amp;nbsp; &amp;nbsp; &amp;nbsp; &amp;nbsp; &amp;nbsp; Student_ID&amp;nbsp; &amp;nbsp; &amp;nbsp; &amp;nbsp; &amp;nbsp; &amp;nbsp; &amp;nbsp;" style="rounded=0;whiteSpace=wrap;html=1;" parent="1" vertex="1">
          <mxGeometry x="270" y="495" width="170" height="30" as="geometry" />
        </mxCell>
      </root>
    </mxGraphModel>
  </diagram>
</mxfile>
